<svg xmlns="http://www.w3.org/2000/svg" viewBox="0 0 260 190" fill="none">
  <defs>
    <linearGradient id="a1" x1="40" y1="30" x2="230" y2="170" gradientUnits="userSpaceOnUse">
      <stop stop-color="#F97316"/><stop offset="1" stop-color="#EA580C"/>
    </linearGradient>
    <linearGradient id="a2" x1="150" y1="60" x2="240" y2="160" gradientUnits="userSpaceOnUse">
      <stop stop-color="#14B8A6"/><stop offset="1" stop-color="#0D9488"/>
    </linearGradient>
  </defs>
  <ellipse cx="130" cy="170" rx="104" ry="13" fill="#F97316" fill-opacity=".10"/>
  <rect x="18" y="70" width="70" height="92" rx="12" fill="#FFEDD5"/>
  <rect x="30" y="86" width="18" height="18" rx="4" fill="#fff" fill-opacity=".9"/>
  <rect x="58" y="86" width="18" height="18" rx="4" fill="#fff" fill-opacity=".9"/>
  <rect x="30" y="114" width="18" height="18" rx="4" fill="#fff" fill-opacity=".9"/>
  <rect x="58" y="114" width="18" height="18" rx="4" fill="#fff" fill-opacity=".9"/>
  <rect x="188" y="84" width="58" height="78" rx="12" fill="#CCFBF1"/>
  <rect x="200" y="98" width="15" height="15" rx="3.5" fill="#fff" fill-opacity=".9"/>
  <rect x="221" y="98" width="15" height="15" rx="3.5" fill="#fff" fill-opacity=".9"/>
  <rect x="200" y="122" width="15" height="15" rx="3.5" fill="#fff" fill-opacity=".9"/>
  <rect x="221" y="122" width="15" height="15" rx="3.5" fill="#fff" fill-opacity=".9"/>
  <path d="M96 162V78l34-30 34 30v84H96Z" fill="#fff"/>
  <path d="M84 82 130 41l46 41" stroke="url(#a1)" stroke-width="8" stroke-linecap="round" stroke-linejoin="round"/>
  <path d="M100 162V84l30-26 30 26v78" stroke="#FED7AA" stroke-width="4" stroke-linejoin="round"/>
  <rect x="118" y="122" width="24" height="40" rx="5" fill="url(#a1)"/>
  <circle cx="112" cy="98" r="10" fill="url(#a1)"/>
  <circle cx="148" cy="98" r="10" fill="url(#a2)"/>
  <path d="M130 22v10M112 30l6 8M148 30l-6 8" stroke="#FB7185" stroke-width="4" stroke-linecap="round"/>
</svg>
